<mxfile host="Electron" modified="2023-10-20T11:56:36.865Z" agent="Mozilla/5.0 (Windows NT 10.0; Win64; x64) AppleWebKit/537.36 (KHTML, like Gecko) draw.io/21.6.8 Chrome/114.0.5735.289 Electron/25.5.0 Safari/537.36" etag="0gvhZb0oWjkl7YKAZ4oM" version="21.6.8" type="device">
  <diagram name="Page-1" id="UEpwQa75QT5l1mynbyUQ">
    <mxGraphModel dx="1051" dy="484" grid="1" gridSize="10" guides="1" tooltips="1" connect="1" arrows="1" fold="1" page="1" pageScale="1" pageWidth="850" pageHeight="1100" math="0" shadow="0">
      <root>
        <mxCell id="0" />
        <mxCell id="1" parent="0" />
        <mxCell id="tDKxLC9NvCPeBoZ4eB3s-1" value="" style="verticalLabelPosition=bottom;verticalAlign=top;html=1;shadow=0;dashed=0;strokeWidth=1;shape=mxgraph.android.phone2;strokeColor=#314354;fillColor=#647687;fontColor=#ffffff;" parent="1" vertex="1">
          <mxGeometry x="10" y="10" width="180" height="360" as="geometry" />
        </mxCell>
        <mxCell id="tDKxLC9NvCPeBoZ4eB3s-2" value="" style="verticalLabelPosition=bottom;verticalAlign=top;html=1;shadow=0;dashed=0;strokeWidth=1;shape=mxgraph.android.phone2;strokeColor=#314354;fillColor=#647687;fontColor=#ffffff;" parent="1" vertex="1">
          <mxGeometry x="510" y="474" width="210" height="360" as="geometry" />
        </mxCell>
        <mxCell id="tDKxLC9NvCPeBoZ4eB3s-4" value="" style="verticalLabelPosition=bottom;verticalAlign=top;html=1;shadow=0;dashed=0;strokeWidth=1;shape=mxgraph.android.phone2;strokeColor=#314354;fillColor=#647687;fontColor=#ffffff;" parent="1" vertex="1">
          <mxGeometry x="225" y="10" width="180" height="359" as="geometry" />
        </mxCell>
        <mxCell id="tDKxLC9NvCPeBoZ4eB3s-5" value="" style="verticalLabelPosition=bottom;verticalAlign=top;html=1;shadow=0;dashed=0;strokeWidth=1;shape=mxgraph.android.phone2;strokeColor=#314354;fillColor=#647687;fontColor=#ffffff;" parent="1" vertex="1">
          <mxGeometry y="480" width="178" height="360" as="geometry" />
        </mxCell>
        <mxCell id="tDKxLC9NvCPeBoZ4eB3s-6" value="" style="verticalLabelPosition=bottom;verticalAlign=top;html=1;shadow=0;dashed=0;strokeWidth=1;shape=mxgraph.android.phone2;strokeColor=#314354;fillColor=#647687;fontColor=#ffffff;" parent="1" vertex="1">
          <mxGeometry x="450" y="10" width="190" height="360" as="geometry" />
        </mxCell>
        <mxCell id="tDKxLC9NvCPeBoZ4eB3s-7" value="" style="verticalLabelPosition=bottom;verticalAlign=top;html=1;shadow=0;dashed=0;strokeWidth=1;shape=mxgraph.android.phone2;strokeColor=#314354;fillColor=#647687;fontColor=#ffffff;" parent="1" vertex="1">
          <mxGeometry x="660" y="10" width="180" height="360" as="geometry" />
        </mxCell>
        <mxCell id="tDKxLC9NvCPeBoZ4eB3s-8" value="" style="dashed=0;outlineConnect=0;html=1;align=center;labelPosition=center;verticalLabelPosition=bottom;verticalAlign=top;shape=mxgraph.weblogos.gmail" parent="1" vertex="1">
          <mxGeometry x="30" y="60" width="40" height="30" as="geometry" />
        </mxCell>
        <mxCell id="tDKxLC9NvCPeBoZ4eB3s-9" value="" style="dashed=0;outlineConnect=0;html=1;align=center;labelPosition=center;verticalLabelPosition=bottom;verticalAlign=top;shape=mxgraph.weblogos.github" parent="1" vertex="1">
          <mxGeometry x="80" y="55" width="40" height="40" as="geometry" />
        </mxCell>
        <mxCell id="tDKxLC9NvCPeBoZ4eB3s-10" value="" style="dashed=0;outlineConnect=0;html=1;align=center;labelPosition=center;verticalLabelPosition=bottom;verticalAlign=top;shape=mxgraph.weblogos.whatsapp;fillColor=#00E676;strokeColor=#dddddd" parent="1" vertex="1">
          <mxGeometry x="130" y="55" width="40" height="45" as="geometry" />
        </mxCell>
        <mxCell id="tDKxLC9NvCPeBoZ4eB3s-11" value="" style="dashed=0;outlineConnect=0;html=1;align=center;labelPosition=center;verticalLabelPosition=bottom;verticalAlign=top;shape=mxgraph.webicons.facebook;fillColor=#6294E4;gradientColor=#1A2665" parent="1" vertex="1">
          <mxGeometry x="30" y="136.5" width="40" height="40" as="geometry" />
        </mxCell>
        <mxCell id="tDKxLC9NvCPeBoZ4eB3s-12" value="" style="verticalLabelPosition=bottom;verticalAlign=top;html=1;shadow=0;dashed=0;strokeWidth=1;shape=mxgraph.ios.iDeleteApp;fillColor=#cccccc;fillColor2=#000000;strokeColor=#ffffff;sketch=0;" parent="1" vertex="1">
          <mxGeometry x="120" y="134.75" width="45" height="43.5" as="geometry" />
        </mxCell>
        <mxCell id="tDKxLC9NvCPeBoZ4eB3s-13" value="" style="endArrow=classic;html=1;rounded=0;" parent="1" edge="1">
          <mxGeometry width="50" height="50" relative="1" as="geometry">
            <mxPoint x="165" y="156.21" as="sourcePoint" />
            <mxPoint x="230" y="156" as="targetPoint" />
          </mxGeometry>
        </mxCell>
        <mxCell id="tDKxLC9NvCPeBoZ4eB3s-14" value="&lt;b&gt;&lt;font style=&quot;font-size: 15px;&quot;&gt;Registration Form&lt;/font&gt;&lt;/b&gt;" style="text;strokeColor=none;align=center;fillColor=none;html=1;verticalAlign=middle;whiteSpace=wrap;rounded=0;fontColor=#7A05FF;" parent="1" vertex="1">
          <mxGeometry x="22.5" y="510" width="135.5" height="30" as="geometry" />
        </mxCell>
        <mxCell id="tDKxLC9NvCPeBoZ4eB3s-15" value="First&amp;nbsp; Name" style="text;strokeColor=none;align=center;fillColor=none;html=1;verticalAlign=middle;whiteSpace=wrap;rounded=0;" parent="1" vertex="1">
          <mxGeometry x="55" y="525" width="68" height="30" as="geometry" />
        </mxCell>
        <mxCell id="tDKxLC9NvCPeBoZ4eB3s-18" value="Last Name" style="text;strokeColor=none;align=center;fillColor=none;html=1;verticalAlign=middle;whiteSpace=wrap;rounded=0;" parent="1" vertex="1">
          <mxGeometry x="50" y="565" width="68" height="30" as="geometry" />
        </mxCell>
        <mxCell id="tDKxLC9NvCPeBoZ4eB3s-19" value="Company Name" style="text;strokeColor=none;align=center;fillColor=none;html=1;verticalAlign=middle;whiteSpace=wrap;rounded=0;" parent="1" vertex="1">
          <mxGeometry x="40" y="606.5" width="98" height="30" as="geometry" />
        </mxCell>
        <mxCell id="tDKxLC9NvCPeBoZ4eB3s-20" value="Work E-mail" style="text;strokeColor=none;align=center;fillColor=none;html=1;verticalAlign=middle;whiteSpace=wrap;rounded=0;" parent="1" vertex="1">
          <mxGeometry x="47.5" y="650" width="80.5" height="30" as="geometry" />
        </mxCell>
        <mxCell id="tDKxLC9NvCPeBoZ4eB3s-21" value="Role" style="text;strokeColor=none;align=center;fillColor=none;html=1;verticalAlign=middle;whiteSpace=wrap;rounded=0;" parent="1" vertex="1">
          <mxGeometry x="55" y="690" width="58" height="30" as="geometry" />
        </mxCell>
        <mxCell id="tDKxLC9NvCPeBoZ4eB3s-23" value="" style="whiteSpace=wrap;html=1;rounded=1;" parent="1" vertex="1">
          <mxGeometry x="20" y="550" width="138" height="20" as="geometry" />
        </mxCell>
        <mxCell id="tDKxLC9NvCPeBoZ4eB3s-24" value="" style="whiteSpace=wrap;html=1;rounded=1;" parent="1" vertex="1">
          <mxGeometry x="20" y="586.5" width="138" height="20" as="geometry" />
        </mxCell>
        <mxCell id="tDKxLC9NvCPeBoZ4eB3s-26" value="" style="whiteSpace=wrap;html=1;rounded=1;" parent="1" vertex="1">
          <mxGeometry x="20" y="630" width="138" height="20" as="geometry" />
        </mxCell>
        <mxCell id="tDKxLC9NvCPeBoZ4eB3s-27" value="" style="whiteSpace=wrap;html=1;rounded=1;" parent="1" vertex="1">
          <mxGeometry x="18.75" y="670" width="138" height="20" as="geometry" />
        </mxCell>
        <mxCell id="tDKxLC9NvCPeBoZ4eB3s-28" value="" style="whiteSpace=wrap;html=1;rounded=1;" parent="1" vertex="1">
          <mxGeometry x="18.75" y="713" width="138" height="20" as="geometry" />
        </mxCell>
        <mxCell id="tDKxLC9NvCPeBoZ4eB3s-29" value="&lt;b&gt;Cancel&lt;/b&gt;" style="whiteSpace=wrap;html=1;rounded=1;fillColor=#e51400;fontColor=#ffffff;strokeColor=#B20000;" parent="1" vertex="1">
          <mxGeometry x="18.75" y="740" width="58" height="30" as="geometry" />
        </mxCell>
        <mxCell id="tDKxLC9NvCPeBoZ4eB3s-30" value="&lt;b&gt;Submit&lt;/b&gt;" style="whiteSpace=wrap;html=1;rounded=1;fillColor=#008a00;fontColor=#ffffff;strokeColor=#005700;" parent="1" vertex="1">
          <mxGeometry x="98.75" y="740" width="58" height="30" as="geometry" />
        </mxCell>
        <mxCell id="tDKxLC9NvCPeBoZ4eB3s-36" value="" style="endArrow=none;html=1;rounded=0;strokeWidth=3;" parent="1" edge="1">
          <mxGeometry width="50" height="50" relative="1" as="geometry">
            <mxPoint x="670" y="60" as="sourcePoint" />
            <mxPoint x="700" y="60" as="targetPoint" />
          </mxGeometry>
        </mxCell>
        <mxCell id="tDKxLC9NvCPeBoZ4eB3s-37" value="" style="endArrow=none;html=1;rounded=0;strokeWidth=3;" parent="1" edge="1">
          <mxGeometry width="50" height="50" relative="1" as="geometry">
            <mxPoint x="670" y="70" as="sourcePoint" />
            <mxPoint x="700" y="70" as="targetPoint" />
          </mxGeometry>
        </mxCell>
        <mxCell id="tDKxLC9NvCPeBoZ4eB3s-38" value="" style="endArrow=none;html=1;rounded=0;strokeWidth=3;" parent="1" edge="1">
          <mxGeometry width="50" height="50" relative="1" as="geometry">
            <mxPoint x="670" y="80" as="sourcePoint" />
            <mxPoint x="700" y="80" as="targetPoint" />
          </mxGeometry>
        </mxCell>
        <mxCell id="tDKxLC9NvCPeBoZ4eB3s-39" value="" style="endArrow=none;html=1;rounded=0;strokeWidth=3;" parent="1" edge="1">
          <mxGeometry width="50" height="50" relative="1" as="geometry">
            <mxPoint x="460" y="60" as="sourcePoint" />
            <mxPoint x="490" y="60" as="targetPoint" />
          </mxGeometry>
        </mxCell>
        <mxCell id="tDKxLC9NvCPeBoZ4eB3s-40" value="" style="endArrow=none;html=1;rounded=0;strokeWidth=3;" parent="1" edge="1">
          <mxGeometry width="50" height="50" relative="1" as="geometry">
            <mxPoint x="460" y="70" as="sourcePoint" />
            <mxPoint x="490" y="70" as="targetPoint" />
          </mxGeometry>
        </mxCell>
        <mxCell id="tDKxLC9NvCPeBoZ4eB3s-41" value="" style="endArrow=none;html=1;rounded=0;strokeWidth=3;" parent="1" edge="1">
          <mxGeometry width="50" height="50" relative="1" as="geometry">
            <mxPoint x="460" y="80" as="sourcePoint" />
            <mxPoint x="490" y="80" as="targetPoint" />
          </mxGeometry>
        </mxCell>
        <mxCell id="tDKxLC9NvCPeBoZ4eB3s-46" value="eX-trak" style="text;strokeColor=none;align=center;fillColor=none;html=1;verticalAlign=middle;whiteSpace=wrap;rounded=0;" parent="1" vertex="1">
          <mxGeometry x="112.5" y="180" width="60" height="30" as="geometry" />
        </mxCell>
        <mxCell id="tDKxLC9NvCPeBoZ4eB3s-47" value="Facebook" style="text;strokeColor=none;align=center;fillColor=none;html=1;verticalAlign=middle;whiteSpace=wrap;rounded=0;" parent="1" vertex="1">
          <mxGeometry x="20" y="180" width="60" height="30" as="geometry" />
        </mxCell>
        <mxCell id="tDKxLC9NvCPeBoZ4eB3s-48" value="WharsApp" style="text;strokeColor=none;align=center;fillColor=none;html=1;verticalAlign=middle;whiteSpace=wrap;rounded=0;" parent="1" vertex="1">
          <mxGeometry x="120" y="104.75" width="60" height="30" as="geometry" />
        </mxCell>
        <mxCell id="tDKxLC9NvCPeBoZ4eB3s-49" value="Github" style="text;strokeColor=none;align=center;fillColor=none;html=1;verticalAlign=middle;whiteSpace=wrap;rounded=0;" parent="1" vertex="1">
          <mxGeometry x="70" y="104.75" width="60" height="30" as="geometry" />
        </mxCell>
        <mxCell id="tDKxLC9NvCPeBoZ4eB3s-50" value="Gmail" style="text;strokeColor=none;align=center;fillColor=none;html=1;verticalAlign=middle;whiteSpace=wrap;rounded=0;" parent="1" vertex="1">
          <mxGeometry x="20" y="106.5" width="60" height="30" as="geometry" />
        </mxCell>
        <mxCell id="1gw-fjKuX4rpCVe3R7ao-1" value="&lt;b&gt;&lt;font style=&quot;font-size: 15px;&quot;&gt;Dashboard&lt;/font&gt;&lt;/b&gt;" style="swimlane;fontStyle=0;childLayout=stackLayout;horizontal=1;startSize=26;fillColor=#1ba1e2;horizontalStack=0;resizeParent=1;resizeParentMax=0;resizeLast=0;collapsible=1;marginBottom=0;html=1;fontColor=#FFFFFF;strokeColor=#006EAF;" parent="1" vertex="1">
          <mxGeometry x="670" y="55" width="150" height="130" as="geometry">
            <mxRectangle x="670" y="55" width="120" height="30" as="alternateBounds" />
          </mxGeometry>
        </mxCell>
        <mxCell id="1gw-fjKuX4rpCVe3R7ao-2" value="Expense Entry" style="text;strokeColor=none;fillColor=none;align=left;verticalAlign=top;spacingLeft=4;spacingRight=4;overflow=hidden;rotatable=0;points=[[0,0.5],[1,0.5]];portConstraint=eastwest;whiteSpace=wrap;html=1;" parent="1gw-fjKuX4rpCVe3R7ao-1" vertex="1">
          <mxGeometry y="26" width="150" height="26" as="geometry" />
        </mxCell>
        <mxCell id="1gw-fjKuX4rpCVe3R7ao-3" value="Income Entry" style="text;strokeColor=none;fillColor=none;align=left;verticalAlign=top;spacingLeft=4;spacingRight=4;overflow=hidden;rotatable=0;points=[[0,0.5],[1,0.5]];portConstraint=eastwest;whiteSpace=wrap;html=1;" parent="1gw-fjKuX4rpCVe3R7ao-1" vertex="1">
          <mxGeometry y="52" width="150" height="26" as="geometry" />
        </mxCell>
        <mxCell id="My3xGEA-vO20KiPbaAir-458" value="" style="endArrow=classic;html=1;rounded=0;entryX=0.67;entryY=0.012;entryDx=0;entryDy=0;entryPerimeter=0;" parent="1gw-fjKuX4rpCVe3R7ao-1" target="tDKxLC9NvCPeBoZ4eB3s-2" edge="1">
          <mxGeometry width="50" height="50" relative="1" as="geometry">
            <mxPoint x="20" y="90" as="sourcePoint" />
            <mxPoint x="70" y="40" as="targetPoint" />
            <Array as="points">
              <mxPoint x="-19" y="90" />
              <mxPoint x="-20" y="245" />
            </Array>
          </mxGeometry>
        </mxCell>
        <mxCell id="1gw-fjKuX4rpCVe3R7ao-4" value="Expense Management" style="text;strokeColor=none;fillColor=none;align=left;verticalAlign=top;spacingLeft=4;spacingRight=4;overflow=hidden;rotatable=0;points=[[0,0.5],[1,0.5]];portConstraint=eastwest;whiteSpace=wrap;html=1;" parent="1gw-fjKuX4rpCVe3R7ao-1" vertex="1">
          <mxGeometry y="78" width="150" height="26" as="geometry" />
        </mxCell>
        <mxCell id="1gw-fjKuX4rpCVe3R7ao-10" value="Income Management" style="text;strokeColor=none;fillColor=none;align=left;verticalAlign=top;spacingLeft=4;spacingRight=4;overflow=hidden;rotatable=0;points=[[0,0.5],[1,0.5]];portConstraint=eastwest;whiteSpace=wrap;html=1;" parent="1gw-fjKuX4rpCVe3R7ao-1" vertex="1">
          <mxGeometry y="104" width="150" height="26" as="geometry" />
        </mxCell>
        <mxCell id="1gw-fjKuX4rpCVe3R7ao-15" value="Already have an account? Click&amp;nbsp;" style="text;strokeColor=none;align=center;fillColor=none;html=1;verticalAlign=middle;whiteSpace=wrap;rounded=0;" parent="1" vertex="1">
          <mxGeometry x="10" y="770" width="128" height="30" as="geometry" />
        </mxCell>
        <mxCell id="1gw-fjKuX4rpCVe3R7ao-16" value="&lt;b&gt;Login&lt;/b&gt;" style="whiteSpace=wrap;html=1;rounded=1;fillColor=#dae8fc;strokeColor=#6c8ebf;" parent="1" vertex="1">
          <mxGeometry x="125" y="780" width="33" height="20" as="geometry" />
        </mxCell>
        <mxCell id="vx7KueXeXOQ_gnUGrTru-2" value="&lt;b&gt;&lt;font style=&quot;font-size: 18px;&quot;&gt;Login&lt;/font&gt;&lt;/b&gt;" style="text;strokeColor=#006EAF;align=center;fillColor=#1ba1e2;html=1;verticalAlign=middle;whiteSpace=wrap;rounded=0;fontColor=#FFFAFB;" parent="1" vertex="1">
          <mxGeometry x="235" y="44" width="160" height="41" as="geometry" />
        </mxCell>
        <mxCell id="vx7KueXeXOQ_gnUGrTru-3" value="&lt;font style=&quot;font-size: 14px;&quot;&gt;Username:&lt;/font&gt;" style="text;strokeColor=none;align=center;fillColor=none;html=1;verticalAlign=middle;whiteSpace=wrap;rounded=0;" parent="1" vertex="1">
          <mxGeometry x="240" y="90" width="60" height="29" as="geometry" />
        </mxCell>
        <mxCell id="vx7KueXeXOQ_gnUGrTru-5" value="" style="whiteSpace=wrap;html=1;rounded=1;" parent="1" vertex="1">
          <mxGeometry x="305" y="95" width="85" height="19" as="geometry" />
        </mxCell>
        <mxCell id="vx7KueXeXOQ_gnUGrTru-6" value="&lt;font style=&quot;font-size: 14px;&quot;&gt;Password:&lt;/font&gt;" style="text;strokeColor=none;align=center;fillColor=none;html=1;verticalAlign=middle;whiteSpace=wrap;rounded=0;" parent="1" vertex="1">
          <mxGeometry x="240" y="130" width="60" height="29" as="geometry" />
        </mxCell>
        <mxCell id="vx7KueXeXOQ_gnUGrTru-8" value="" style="whiteSpace=wrap;html=1;rounded=1;" parent="1" vertex="1">
          <mxGeometry x="305" y="135" width="85" height="19" as="geometry" />
        </mxCell>
        <mxCell id="vx7KueXeXOQ_gnUGrTru-9" value="&lt;font face=&quot;Verdana&quot; style=&quot;font-size: 14px;&quot;&gt;&lt;b&gt;Login&lt;/b&gt;&lt;/font&gt;" style="whiteSpace=wrap;html=1;rounded=1;fillColor=#008a00;fontColor=#ffffff;strokeColor=#005700;" parent="1" vertex="1">
          <mxGeometry x="248.75" y="170" width="130" height="29" as="geometry" />
        </mxCell>
        <mxCell id="vx7KueXeXOQ_gnUGrTru-10" value="Have no account? Click&amp;nbsp;" style="text;strokeColor=none;align=left;fillColor=none;html=1;verticalAlign=middle;whiteSpace=wrap;rounded=0;" parent="1" vertex="1">
          <mxGeometry x="250" y="230" width="130" height="39" as="geometry" />
        </mxCell>
        <mxCell id="vx7KueXeXOQ_gnUGrTru-11" value="Signup" style="whiteSpace=wrap;html=1;rounded=1;fillColor=#dae8fc;strokeColor=#6c8ebf;" parent="1" vertex="1">
          <mxGeometry x="284.38" y="250" width="58.75" height="19" as="geometry" />
        </mxCell>
        <mxCell id="Rzn8Hp6M5OzKj84DvB4l-2" value="" style="verticalLabelPosition=bottom;verticalAlign=top;html=1;shadow=0;dashed=0;strokeWidth=1;shape=mxgraph.android.phone2;strokeColor=#314354;fillColor=#647687;fontColor=#ffffff;" parent="1" vertex="1">
          <mxGeometry x="780" y="474" width="210" height="360" as="geometry" />
        </mxCell>
        <mxCell id="Rzn8Hp6M5OzKj84DvB4l-4" value="" style="verticalLabelPosition=bottom;verticalAlign=top;html=1;shadow=0;dashed=0;strokeWidth=1;shape=mxgraph.android.phone2;strokeColor=#314354;fillColor=#647687;fontColor=#ffffff;" parent="1" vertex="1">
          <mxGeometry x="1060" y="10" width="180" height="360" as="geometry" />
        </mxCell>
        <mxCell id="Rzn8Hp6M5OzKj84DvB4l-5" value="" style="verticalLabelPosition=bottom;verticalAlign=top;html=1;shadow=0;dashed=0;strokeWidth=1;shape=mxgraph.android.phone2;strokeColor=#314354;fillColor=#647687;fontColor=#ffffff;" parent="1" vertex="1">
          <mxGeometry x="860" y="10" width="180" height="360" as="geometry" />
        </mxCell>
        <mxCell id="My3xGEA-vO20KiPbaAir-1" value="" style="endArrow=classic;html=1;rounded=0;entryX=0.3;entryY=0.994;entryDx=0;entryDy=0;entryPerimeter=0;exitX=1;exitY=0.75;exitDx=0;exitDy=0;" parent="1" edge="1">
          <mxGeometry width="50" height="50" relative="1" as="geometry">
            <mxPoint x="156" y="772.18" as="sourcePoint" />
            <mxPoint x="234" y="347.6759999999999" as="targetPoint" />
            <Array as="points">
              <mxPoint x="235" y="772.3299999999999" />
            </Array>
          </mxGeometry>
        </mxCell>
        <mxCell id="My3xGEA-vO20KiPbaAir-2" value="" style="endArrow=classic;html=1;rounded=0;entryX=0.971;entryY=0.143;entryDx=0;entryDy=0;entryPerimeter=0;" parent="1" target="tDKxLC9NvCPeBoZ4eB3s-5" edge="1">
          <mxGeometry width="50" height="50" relative="1" as="geometry">
            <mxPoint x="287.15" y="262.28" as="sourcePoint" />
            <mxPoint x="60.00199999999987" y="480" as="targetPoint" />
            <Array as="points">
              <mxPoint x="210" y="260" />
              <mxPoint x="210" y="530" />
            </Array>
          </mxGeometry>
        </mxCell>
        <mxCell id="My3xGEA-vO20KiPbaAir-3" value="" style="endArrow=classic;html=1;rounded=0;entryX=0.009;entryY=0.321;entryDx=0;entryDy=0;entryPerimeter=0;" parent="1" edge="1">
          <mxGeometry width="50" height="50" relative="1" as="geometry">
            <mxPoint x="468" y="60" as="sourcePoint" />
            <mxPoint x="659.9999999999999" y="47.559999999999945" as="targetPoint" />
            <Array as="points">
              <mxPoint x="468.38" y="48" />
            </Array>
          </mxGeometry>
        </mxCell>
        <mxCell id="Rzn8Hp6M5OzKj84DvB4l-6" value="Dashboad" style="text;strokeColor=#006EAF;align=center;fillColor=#1ba1e2;html=1;verticalAlign=middle;whiteSpace=wrap;rounded=0;fontSize=17;fontColor=#ffffff;fontStyle=1" parent="1" vertex="1">
          <mxGeometry x="485" y="55" width="145" height="30" as="geometry" />
        </mxCell>
        <mxCell id="My3xGEA-vO20KiPbaAir-5" value="&lt;span style=&quot;font-size: 15px;&quot;&gt;Total Balance&lt;/span&gt;" style="text;strokeColor=none;align=center;fillColor=none;html=1;verticalAlign=middle;whiteSpace=wrap;rounded=0;" parent="1" vertex="1">
          <mxGeometry x="450" y="100" width="120" height="30" as="geometry" />
        </mxCell>
        <mxCell id="My3xGEA-vO20KiPbaAir-6" value="&lt;span style=&quot;font-size: 15px;&quot;&gt;Total Income&lt;/span&gt;" style="text;strokeColor=none;align=center;fillColor=none;html=1;verticalAlign=middle;whiteSpace=wrap;rounded=0;" parent="1" vertex="1">
          <mxGeometry x="450" y="130" width="120" height="30" as="geometry" />
        </mxCell>
        <mxCell id="My3xGEA-vO20KiPbaAir-7" value="&lt;span style=&quot;font-size: 15px;&quot;&gt;Total Expense&lt;/span&gt;" style="text;strokeColor=none;align=center;fillColor=none;html=1;verticalAlign=middle;whiteSpace=wrap;rounded=0;" parent="1" vertex="1">
          <mxGeometry x="450" y="160" width="120" height="30" as="geometry" />
        </mxCell>
        <mxCell id="My3xGEA-vO20KiPbaAir-10" value="&lt;font style=&quot;font-size: 13px;&quot;&gt;Add Income&lt;/font&gt;" style="whiteSpace=wrap;html=1;rounded=1;fillColor=#60a917;fontColor=#ffffff;strokeColor=#2D7600;" parent="1" vertex="1">
          <mxGeometry x="550" y="276" width="80" height="30" as="geometry" />
        </mxCell>
        <mxCell id="My3xGEA-vO20KiPbaAir-11" value="&lt;font style=&quot;font-size: 13px;&quot;&gt;Add Expense&lt;/font&gt;" style="whiteSpace=wrap;html=1;rounded=1;fillColor=#60a917;strokeColor=#2D7600;fontColor=#ffffff;fontStyle=0" parent="1" vertex="1">
          <mxGeometry x="464" y="276" width="80" height="30" as="geometry" />
        </mxCell>
        <mxCell id="My3xGEA-vO20KiPbaAir-13" value="" style="whiteSpace=wrap;html=1;rounded=1;" parent="1" vertex="1">
          <mxGeometry x="560" y="105" width="70" height="20" as="geometry" />
        </mxCell>
        <mxCell id="My3xGEA-vO20KiPbaAir-14" value="" style="whiteSpace=wrap;html=1;rounded=1;" parent="1" vertex="1">
          <mxGeometry x="560" y="135" width="70" height="20" as="geometry" />
        </mxCell>
        <mxCell id="My3xGEA-vO20KiPbaAir-15" value="" style="whiteSpace=wrap;html=1;rounded=1;" parent="1" vertex="1">
          <mxGeometry x="560" y="165" width="70" height="20" as="geometry" />
        </mxCell>
        <mxCell id="My3xGEA-vO20KiPbaAir-16" value="" style="endArrow=classic;html=1;rounded=0;entryX=0;entryY=1;entryDx=0;entryDy=0;" parent="1" target="My3xGEA-vO20KiPbaAir-7" edge="1">
          <mxGeometry width="50" height="50" relative="1" as="geometry">
            <mxPoint x="380" y="190" as="sourcePoint" />
            <mxPoint x="430" y="140" as="targetPoint" />
          </mxGeometry>
        </mxCell>
        <mxCell id="My3xGEA-vO20KiPbaAir-17" value="Add Expense" style="text;strokeColor=#006EAF;align=center;fillColor=#1ba1e2;html=1;verticalAlign=middle;whiteSpace=wrap;rounded=0;fontColor=#ffffff;fontSize=15;fontStyle=1" parent="1" vertex="1">
          <mxGeometry x="870" y="45.5" width="160" height="38" as="geometry" />
        </mxCell>
        <mxCell id="My3xGEA-vO20KiPbaAir-18" value="Expense Category" style="swimlane;fontStyle=0;childLayout=stackLayout;horizontal=1;startSize=26;fillColor=none;horizontalStack=0;resizeParent=1;resizeParentMax=0;resizeLast=0;collapsible=1;marginBottom=0;html=1;" parent="1" vertex="1" collapsed="1">
          <mxGeometry x="870" y="86" width="140" height="30" as="geometry">
            <mxRectangle x="870" y="86" width="140" height="104" as="alternateBounds" />
          </mxGeometry>
        </mxCell>
        <mxCell id="My3xGEA-vO20KiPbaAir-19" value="Rent" style="text;strokeColor=none;fillColor=none;align=left;verticalAlign=top;spacingLeft=4;spacingRight=4;overflow=hidden;rotatable=0;points=[[0,0.5],[1,0.5]];portConstraint=eastwest;whiteSpace=wrap;html=1;" parent="My3xGEA-vO20KiPbaAir-18" vertex="1">
          <mxGeometry y="26" width="140" height="26" as="geometry" />
        </mxCell>
        <mxCell id="My3xGEA-vO20KiPbaAir-20" value="Water" style="text;strokeColor=none;fillColor=none;align=left;verticalAlign=top;spacingLeft=4;spacingRight=4;overflow=hidden;rotatable=0;points=[[0,0.5],[1,0.5]];portConstraint=eastwest;whiteSpace=wrap;html=1;" parent="My3xGEA-vO20KiPbaAir-18" vertex="1">
          <mxGeometry y="52" width="140" height="26" as="geometry" />
        </mxCell>
        <mxCell id="My3xGEA-vO20KiPbaAir-21" value="Electricity" style="text;strokeColor=none;fillColor=none;align=left;verticalAlign=top;spacingLeft=4;spacingRight=4;overflow=hidden;rotatable=0;points=[[0,0.5],[1,0.5]];portConstraint=eastwest;whiteSpace=wrap;html=1;" parent="My3xGEA-vO20KiPbaAir-18" vertex="1">
          <mxGeometry y="78" width="140" height="26" as="geometry" />
        </mxCell>
        <mxCell id="My3xGEA-vO20KiPbaAir-22" value="Amount" style="text;strokeColor=none;align=center;fillColor=none;html=1;verticalAlign=middle;whiteSpace=wrap;rounded=0;" parent="1" vertex="1">
          <mxGeometry x="880" y="106.5" width="120" height="30" as="geometry" />
        </mxCell>
        <mxCell id="My3xGEA-vO20KiPbaAir-23" value="" style="whiteSpace=wrap;html=1;rounded=0;" parent="1" vertex="1">
          <mxGeometry x="880" y="140" width="130" height="20" as="geometry" />
        </mxCell>
        <mxCell id="My3xGEA-vO20KiPbaAir-24" value="Date" style="text;strokeColor=none;align=center;fillColor=none;html=1;verticalAlign=middle;whiteSpace=wrap;rounded=0;" parent="1" vertex="1">
          <mxGeometry x="910" y="155" width="60" height="30" as="geometry" />
        </mxCell>
        <mxCell id="My3xGEA-vO20KiPbaAir-26" value="Today" style="rounded=1;arcSize=9;fillColor=#ffffff;align=left;spacingLeft=5;strokeColor=#0057D8;html=1;strokeWidth=2;fontColor=#253858;fontSize=12" parent="1" vertex="1">
          <mxGeometry x="880" y="180" width="130" height="30" as="geometry" />
        </mxCell>
        <mxCell id="My3xGEA-vO20KiPbaAir-27" value="" style="shape=mxgraph.gmdl.calendar;fillColor=#253858;strokeColor=none" parent="My3xGEA-vO20KiPbaAir-26" vertex="1">
          <mxGeometry x="1" y="0.5" width="18" height="18" relative="1" as="geometry">
            <mxPoint x="-29" y="-9" as="offset" />
          </mxGeometry>
        </mxCell>
        <mxCell id="My3xGEA-vO20KiPbaAir-81" value="Notes" style="text;strokeColor=none;align=center;fillColor=none;html=1;verticalAlign=middle;whiteSpace=wrap;rounded=0;" parent="1" vertex="1">
          <mxGeometry x="910" y="210" width="60" height="30" as="geometry" />
        </mxCell>
        <mxCell id="My3xGEA-vO20KiPbaAir-82" value="" style="whiteSpace=wrap;html=1;rounded=1;" parent="1" vertex="1">
          <mxGeometry x="880" y="240" width="140" height="30" as="geometry" />
        </mxCell>
        <mxCell id="My3xGEA-vO20KiPbaAir-83" value="Save" style="whiteSpace=wrap;html=1;rounded=1;fillColor=#60a917;fontColor=#ffffff;strokeColor=#2D7600;" parent="1" vertex="1">
          <mxGeometry x="870" y="281" width="70" height="30" as="geometry" />
        </mxCell>
        <mxCell id="My3xGEA-vO20KiPbaAir-84" value="Cancel" style="whiteSpace=wrap;html=1;rounded=1;fillColor=#e51400;fontColor=#ffffff;strokeColor=#B20000;" parent="1" vertex="1">
          <mxGeometry x="960" y="282" width="70" height="30" as="geometry" />
        </mxCell>
        <mxCell id="My3xGEA-vO20KiPbaAir-86" value="" style="endArrow=classic;html=1;rounded=0;exitX=0.625;exitY=0;exitDx=0;exitDy=0;exitPerimeter=0;entryX=0.034;entryY=0.712;entryDx=0;entryDy=0;entryPerimeter=0;" parent="1" target="Rzn8Hp6M5OzKj84DvB4l-5" edge="1">
          <mxGeometry width="50" height="50" relative="1" as="geometry">
            <mxPoint x="502" y="290" as="sourcePoint" />
            <mxPoint x="850" y="261.54" as="targetPoint" />
            <Array as="points">
              <mxPoint x="502" y="264" />
            </Array>
          </mxGeometry>
        </mxCell>
        <mxCell id="My3xGEA-vO20KiPbaAir-87" value="" style="endArrow=classic;html=1;rounded=0;entryX=0.356;entryY=1.003;entryDx=0;entryDy=0;entryPerimeter=0;" parent="1" source="My3xGEA-vO20KiPbaAir-10" target="Rzn8Hp6M5OzKj84DvB4l-4" edge="1">
          <mxGeometry width="50" height="50" relative="1" as="geometry">
            <mxPoint x="780" y="270" as="sourcePoint" />
            <mxPoint x="1110" y="400" as="targetPoint" />
            <Array as="points">
              <mxPoint x="590" y="410" />
              <mxPoint x="1124" y="410" />
            </Array>
          </mxGeometry>
        </mxCell>
        <mxCell id="My3xGEA-vO20KiPbaAir-88" value="" style="endArrow=classic;html=1;rounded=0;" parent="1" edge="1">
          <mxGeometry width="50" height="50" relative="1" as="geometry">
            <mxPoint x="750" y="94.38" as="sourcePoint" />
            <mxPoint x="860" y="94" as="targetPoint" />
          </mxGeometry>
        </mxCell>
        <mxCell id="My3xGEA-vO20KiPbaAir-90" value="Add Income" style="text;strokeColor=#006EAF;align=center;fillColor=#1ba1e2;html=1;verticalAlign=middle;whiteSpace=wrap;rounded=0;fontColor=#ffffff;fontSize=15;fontStyle=1" parent="1" vertex="1">
          <mxGeometry x="1070" y="45.5" width="160" height="38" as="geometry" />
        </mxCell>
        <mxCell id="My3xGEA-vO20KiPbaAir-128" value="source" style="html=1;shadow=0;dashed=0;shape=mxgraph.bootstrap.rrect;rSize=5;strokeColor=none;strokeWidth=1;fillColor=#1CA5B8;fontColor=#ffffff;whiteSpace=wrap;align=left;verticalAlign=middle;fontStyle=0;fontSize=14;spacingLeft=10;" parent="1" vertex="1">
          <mxGeometry x="1070" y="86" width="80" height="40" as="geometry" />
        </mxCell>
        <mxCell id="My3xGEA-vO20KiPbaAir-129" value="" style="shape=triangle;direction=south;fillColor=#ffffff;strokeColor=none;perimeter=none;" parent="My3xGEA-vO20KiPbaAir-128" vertex="1">
          <mxGeometry x="1" y="0.5" width="10" height="5" relative="1" as="geometry">
            <mxPoint x="-17" y="-2.5" as="offset" />
          </mxGeometry>
        </mxCell>
        <mxCell id="My3xGEA-vO20KiPbaAir-130" value="" style="html=1;shadow=0;dashed=0;shape=mxgraph.bootstrap.rrect;rSize=5;fillColor=#ffffff;strokeColor=#999999;" parent="1" vertex="1">
          <mxGeometry x="1070" y="125" width="85" height="75" as="geometry" />
        </mxCell>
        <mxCell id="My3xGEA-vO20KiPbaAir-131" value="Salary" style="fillColor=none;strokeColor=none;align=left;spacing=20;fontSize=12;" parent="My3xGEA-vO20KiPbaAir-130" vertex="1">
          <mxGeometry width="170" height="20" relative="1" as="geometry">
            <mxPoint as="offset" />
          </mxGeometry>
        </mxCell>
        <mxCell id="My3xGEA-vO20KiPbaAir-132" value="Business" style="fillColor=none;strokeColor=none;align=left;spacing=20;fontSize=12;" parent="My3xGEA-vO20KiPbaAir-130" vertex="1">
          <mxGeometry width="170" height="20" relative="1" as="geometry">
            <mxPoint y="25" as="offset" />
          </mxGeometry>
        </mxCell>
        <mxCell id="My3xGEA-vO20KiPbaAir-136" value="Loan" style="fillColor=none;strokeColor=none;align=left;spacing=20;fontSize=12;" parent="My3xGEA-vO20KiPbaAir-130" vertex="1">
          <mxGeometry y="45" width="87.57575757575758" height="20" as="geometry" />
        </mxCell>
        <mxCell id="My3xGEA-vO20KiPbaAir-137" value="Amount" style="text;strokeColor=none;align=center;fillColor=none;html=1;verticalAlign=middle;whiteSpace=wrap;rounded=0;" parent="1" vertex="1">
          <mxGeometry x="1060" y="199" width="60" height="30" as="geometry" />
        </mxCell>
        <mxCell id="My3xGEA-vO20KiPbaAir-138" value="" style="whiteSpace=wrap;html=1;rounded=1;" parent="1" vertex="1">
          <mxGeometry x="1120" y="204" width="110" height="20" as="geometry" />
        </mxCell>
        <mxCell id="My3xGEA-vO20KiPbaAir-139" value="Date" style="text;strokeColor=none;align=center;fillColor=none;html=1;verticalAlign=middle;whiteSpace=wrap;rounded=0;" parent="1" vertex="1">
          <mxGeometry x="1050" y="227" width="60" height="30" as="geometry" />
        </mxCell>
        <mxCell id="My3xGEA-vO20KiPbaAir-145" value="Today" style="rounded=1;arcSize=9;fillColor=#ffffff;align=left;spacingLeft=5;strokeColor=#0057D8;html=1;strokeWidth=2;fontColor=#253858;fontSize=12" parent="1" vertex="1">
          <mxGeometry x="1115" y="233.5" width="115" height="23" as="geometry" />
        </mxCell>
        <mxCell id="My3xGEA-vO20KiPbaAir-146" value="" style="shape=mxgraph.gmdl.calendar;fillColor=#253858;strokeColor=none" parent="My3xGEA-vO20KiPbaAir-145" vertex="1">
          <mxGeometry x="1" y="0.5" width="18" height="18" relative="1" as="geometry">
            <mxPoint x="-29" y="-9" as="offset" />
          </mxGeometry>
        </mxCell>
        <mxCell id="My3xGEA-vO20KiPbaAir-200" value="Notes" style="text;strokeColor=none;align=center;fillColor=none;html=1;verticalAlign=middle;whiteSpace=wrap;rounded=0;" parent="1" vertex="1">
          <mxGeometry x="1055" y="257" width="60" height="30" as="geometry" />
        </mxCell>
        <mxCell id="My3xGEA-vO20KiPbaAir-201" value="" style="whiteSpace=wrap;html=1;rounded=1;" parent="1" vertex="1">
          <mxGeometry x="1110" y="260" width="120" height="30" as="geometry" />
        </mxCell>
        <mxCell id="My3xGEA-vO20KiPbaAir-203" value="Save" style="whiteSpace=wrap;html=1;rounded=1;fillColor=#60a917;fontColor=#ffffff;strokeColor=#2D7600;" parent="1" vertex="1">
          <mxGeometry x="1070" y="300" width="70" height="30" as="geometry" />
        </mxCell>
        <mxCell id="My3xGEA-vO20KiPbaAir-204" value="Cancel" style="whiteSpace=wrap;html=1;rounded=1;fillColor=#e51400;fontColor=#ffffff;strokeColor=#B20000;" parent="1" vertex="1">
          <mxGeometry x="1170" y="300" width="60" height="30" as="geometry" />
        </mxCell>
        <mxCell id="My3xGEA-vO20KiPbaAir-205" value="Expense Management" style="text;strokeColor=#006EAF;align=center;fillColor=#1ba1e2;html=1;verticalAlign=middle;whiteSpace=wrap;rounded=0;fontColor=#ffffff;fontSize=15;fontStyle=1" parent="1" vertex="1">
          <mxGeometry x="520" y="505.5" width="190" height="38" as="geometry" />
        </mxCell>
        <mxCell id="My3xGEA-vO20KiPbaAir-206" value="Income Manangement" style="text;strokeColor=#006EAF;align=center;fillColor=#1ba1e2;html=1;verticalAlign=middle;whiteSpace=wrap;rounded=0;fontColor=#ffffff;fontSize=15;fontStyle=1" parent="1" vertex="1">
          <mxGeometry x="790" y="505.5" width="190" height="38" as="geometry" />
        </mxCell>
        <mxCell id="My3xGEA-vO20KiPbaAir-286" value="" style="shape=table;startSize=0;container=1;collapsible=0;childLayout=tableLayout;" parent="1" vertex="1">
          <mxGeometry x="520" y="600" width="190" height="120" as="geometry" />
        </mxCell>
        <mxCell id="My3xGEA-vO20KiPbaAir-287" value="" style="shape=tableRow;horizontal=0;startSize=0;swimlaneHead=0;swimlaneBody=0;strokeColor=inherit;top=0;left=0;bottom=0;right=0;collapsible=0;dropTarget=0;fillColor=none;points=[[0,0.5],[1,0.5]];portConstraint=eastwest;" parent="My3xGEA-vO20KiPbaAir-286" vertex="1">
          <mxGeometry width="190" height="40" as="geometry" />
        </mxCell>
        <mxCell id="My3xGEA-vO20KiPbaAir-288" value="&lt;b&gt;&lt;font style=&quot;font-size: 10px;&quot;&gt;Category&lt;/font&gt;&lt;/b&gt;" style="shape=partialRectangle;html=1;whiteSpace=wrap;connectable=0;strokeColor=inherit;overflow=hidden;fillColor=none;top=0;left=0;bottom=0;right=0;pointerEvents=1;" parent="My3xGEA-vO20KiPbaAir-287" vertex="1">
          <mxGeometry width="48" height="40" as="geometry">
            <mxRectangle width="48" height="40" as="alternateBounds" />
          </mxGeometry>
        </mxCell>
        <mxCell id="My3xGEA-vO20KiPbaAir-289" value="&lt;b&gt;Amount&lt;/b&gt;" style="shape=partialRectangle;html=1;whiteSpace=wrap;connectable=0;strokeColor=inherit;overflow=hidden;fillColor=none;top=0;left=0;bottom=0;right=0;pointerEvents=1;" parent="My3xGEA-vO20KiPbaAir-287" vertex="1">
          <mxGeometry x="48" width="47" height="40" as="geometry">
            <mxRectangle width="47" height="40" as="alternateBounds" />
          </mxGeometry>
        </mxCell>
        <mxCell id="My3xGEA-vO20KiPbaAir-290" value="&lt;b&gt;Del btn&lt;/b&gt;" style="shape=partialRectangle;html=1;whiteSpace=wrap;connectable=0;strokeColor=inherit;overflow=hidden;fillColor=none;top=0;left=0;bottom=0;right=0;pointerEvents=1;" parent="My3xGEA-vO20KiPbaAir-287" vertex="1">
          <mxGeometry x="95" width="48" height="40" as="geometry">
            <mxRectangle width="48" height="40" as="alternateBounds" />
          </mxGeometry>
        </mxCell>
        <mxCell id="My3xGEA-vO20KiPbaAir-291" value="&lt;b&gt;Edit btn&lt;/b&gt;" style="shape=partialRectangle;html=1;whiteSpace=wrap;connectable=0;strokeColor=inherit;overflow=hidden;fillColor=none;top=0;left=0;bottom=0;right=0;pointerEvents=1;" parent="My3xGEA-vO20KiPbaAir-287" vertex="1">
          <mxGeometry x="143" width="47" height="40" as="geometry">
            <mxRectangle width="47" height="40" as="alternateBounds" />
          </mxGeometry>
        </mxCell>
        <mxCell id="My3xGEA-vO20KiPbaAir-292" value="" style="shape=tableRow;horizontal=0;startSize=0;swimlaneHead=0;swimlaneBody=0;strokeColor=inherit;top=0;left=0;bottom=0;right=0;collapsible=0;dropTarget=0;fillColor=none;points=[[0,0.5],[1,0.5]];portConstraint=eastwest;" parent="My3xGEA-vO20KiPbaAir-286" vertex="1">
          <mxGeometry y="40" width="190" height="40" as="geometry" />
        </mxCell>
        <mxCell id="My3xGEA-vO20KiPbaAir-293" value="ctgry 1" style="shape=partialRectangle;html=1;whiteSpace=wrap;connectable=0;strokeColor=inherit;overflow=hidden;fillColor=none;top=0;left=0;bottom=0;right=0;pointerEvents=1;" parent="My3xGEA-vO20KiPbaAir-292" vertex="1">
          <mxGeometry width="48" height="40" as="geometry">
            <mxRectangle width="48" height="40" as="alternateBounds" />
          </mxGeometry>
        </mxCell>
        <mxCell id="My3xGEA-vO20KiPbaAir-294" value="" style="shape=partialRectangle;html=1;whiteSpace=wrap;connectable=0;strokeColor=inherit;overflow=hidden;fillColor=none;top=0;left=0;bottom=0;right=0;pointerEvents=1;" parent="My3xGEA-vO20KiPbaAir-292" vertex="1">
          <mxGeometry x="48" width="47" height="40" as="geometry">
            <mxRectangle width="47" height="40" as="alternateBounds" />
          </mxGeometry>
        </mxCell>
        <mxCell id="My3xGEA-vO20KiPbaAir-295" value="Delete" style="shape=partialRectangle;html=1;whiteSpace=wrap;connectable=0;strokeColor=#B20000;overflow=hidden;fillColor=#e51400;top=0;left=0;bottom=0;right=0;pointerEvents=1;fontColor=#ffffff;" parent="My3xGEA-vO20KiPbaAir-292" vertex="1">
          <mxGeometry x="95" width="48" height="40" as="geometry">
            <mxRectangle width="48" height="40" as="alternateBounds" />
          </mxGeometry>
        </mxCell>
        <mxCell id="My3xGEA-vO20KiPbaAir-296" value="Edit" style="shape=partialRectangle;html=1;whiteSpace=wrap;connectable=0;strokeColor=#2D7600;overflow=hidden;fillColor=#60a917;top=0;left=0;bottom=0;right=0;pointerEvents=1;fontColor=#ffffff;" parent="My3xGEA-vO20KiPbaAir-292" vertex="1">
          <mxGeometry x="143" width="47" height="40" as="geometry">
            <mxRectangle width="47" height="40" as="alternateBounds" />
          </mxGeometry>
        </mxCell>
        <mxCell id="My3xGEA-vO20KiPbaAir-297" value="" style="shape=tableRow;horizontal=0;startSize=0;swimlaneHead=0;swimlaneBody=0;strokeColor=inherit;top=0;left=0;bottom=0;right=0;collapsible=0;dropTarget=0;fillColor=none;points=[[0,0.5],[1,0.5]];portConstraint=eastwest;" parent="My3xGEA-vO20KiPbaAir-286" vertex="1">
          <mxGeometry y="80" width="190" height="40" as="geometry" />
        </mxCell>
        <mxCell id="My3xGEA-vO20KiPbaAir-298" value="&lt;br&gt;&lt;span style=&quot;color: rgb(0, 0, 0); font-family: Helvetica; font-size: 12px; font-style: normal; font-variant-ligatures: normal; font-variant-caps: normal; font-weight: 400; letter-spacing: normal; orphans: 2; text-align: center; text-indent: 0px; text-transform: none; widows: 2; word-spacing: 0px; -webkit-text-stroke-width: 0px; background-color: rgb(251, 251, 251); text-decoration-thickness: initial; text-decoration-style: initial; text-decoration-color: initial; float: none; display: inline !important;&quot;&gt;ctgry 2&lt;/span&gt;&lt;br&gt;" style="shape=partialRectangle;html=1;whiteSpace=wrap;connectable=0;strokeColor=inherit;overflow=hidden;fillColor=none;top=0;left=0;bottom=0;right=0;pointerEvents=1;" parent="My3xGEA-vO20KiPbaAir-297" vertex="1">
          <mxGeometry width="48" height="40" as="geometry">
            <mxRectangle width="48" height="40" as="alternateBounds" />
          </mxGeometry>
        </mxCell>
        <mxCell id="My3xGEA-vO20KiPbaAir-299" value="" style="shape=partialRectangle;html=1;whiteSpace=wrap;connectable=0;strokeColor=inherit;overflow=hidden;fillColor=none;top=0;left=0;bottom=0;right=0;pointerEvents=1;" parent="My3xGEA-vO20KiPbaAir-297" vertex="1">
          <mxGeometry x="48" width="47" height="40" as="geometry">
            <mxRectangle width="47" height="40" as="alternateBounds" />
          </mxGeometry>
        </mxCell>
        <mxCell id="My3xGEA-vO20KiPbaAir-300" value="Delete" style="shape=partialRectangle;html=1;whiteSpace=wrap;connectable=0;strokeColor=#B20000;overflow=hidden;fillColor=#e51400;top=0;left=0;bottom=0;right=0;pointerEvents=1;fontColor=#ffffff;" parent="My3xGEA-vO20KiPbaAir-297" vertex="1">
          <mxGeometry x="95" width="48" height="40" as="geometry">
            <mxRectangle width="48" height="40" as="alternateBounds" />
          </mxGeometry>
        </mxCell>
        <mxCell id="My3xGEA-vO20KiPbaAir-301" value="Edit" style="shape=partialRectangle;html=1;whiteSpace=wrap;connectable=0;strokeColor=#2D7600;overflow=hidden;fillColor=#60a917;top=0;left=0;bottom=0;right=0;pointerEvents=1;fontColor=#ffffff;" parent="My3xGEA-vO20KiPbaAir-297" vertex="1">
          <mxGeometry x="143" width="47" height="40" as="geometry">
            <mxRectangle width="47" height="40" as="alternateBounds" />
          </mxGeometry>
        </mxCell>
        <mxCell id="My3xGEA-vO20KiPbaAir-302" value="" style="shape=table;startSize=0;container=1;collapsible=0;childLayout=tableLayout;" parent="1" vertex="1">
          <mxGeometry x="790" y="600" width="190" height="120" as="geometry" />
        </mxCell>
        <mxCell id="My3xGEA-vO20KiPbaAir-303" value="" style="shape=tableRow;horizontal=0;startSize=0;swimlaneHead=0;swimlaneBody=0;strokeColor=inherit;top=0;left=0;bottom=0;right=0;collapsible=0;dropTarget=0;fillColor=none;points=[[0,0.5],[1,0.5]];portConstraint=eastwest;" parent="My3xGEA-vO20KiPbaAir-302" vertex="1">
          <mxGeometry width="190" height="40" as="geometry" />
        </mxCell>
        <mxCell id="My3xGEA-vO20KiPbaAir-304" value="&lt;b&gt;&lt;font style=&quot;font-size: 10px;&quot;&gt;Category&lt;/font&gt;&lt;/b&gt;" style="shape=partialRectangle;html=1;whiteSpace=wrap;connectable=0;strokeColor=inherit;overflow=hidden;fillColor=none;top=0;left=0;bottom=0;right=0;pointerEvents=1;" parent="My3xGEA-vO20KiPbaAir-303" vertex="1">
          <mxGeometry width="48" height="40" as="geometry">
            <mxRectangle width="48" height="40" as="alternateBounds" />
          </mxGeometry>
        </mxCell>
        <mxCell id="My3xGEA-vO20KiPbaAir-305" value="&lt;b&gt;Amount&lt;/b&gt;" style="shape=partialRectangle;html=1;whiteSpace=wrap;connectable=0;strokeColor=inherit;overflow=hidden;fillColor=none;top=0;left=0;bottom=0;right=0;pointerEvents=1;" parent="My3xGEA-vO20KiPbaAir-303" vertex="1">
          <mxGeometry x="48" width="47" height="40" as="geometry">
            <mxRectangle width="47" height="40" as="alternateBounds" />
          </mxGeometry>
        </mxCell>
        <mxCell id="My3xGEA-vO20KiPbaAir-306" value="&lt;b&gt;Del btn&lt;/b&gt;" style="shape=partialRectangle;html=1;whiteSpace=wrap;connectable=0;strokeColor=inherit;overflow=hidden;fillColor=none;top=0;left=0;bottom=0;right=0;pointerEvents=1;" parent="My3xGEA-vO20KiPbaAir-303" vertex="1">
          <mxGeometry x="95" width="48" height="40" as="geometry">
            <mxRectangle width="48" height="40" as="alternateBounds" />
          </mxGeometry>
        </mxCell>
        <mxCell id="My3xGEA-vO20KiPbaAir-307" value="&lt;b&gt;Edit btn&lt;/b&gt;" style="shape=partialRectangle;html=1;whiteSpace=wrap;connectable=0;strokeColor=inherit;overflow=hidden;fillColor=none;top=0;left=0;bottom=0;right=0;pointerEvents=1;" parent="My3xGEA-vO20KiPbaAir-303" vertex="1">
          <mxGeometry x="143" width="47" height="40" as="geometry">
            <mxRectangle width="47" height="40" as="alternateBounds" />
          </mxGeometry>
        </mxCell>
        <mxCell id="My3xGEA-vO20KiPbaAir-308" value="" style="shape=tableRow;horizontal=0;startSize=0;swimlaneHead=0;swimlaneBody=0;strokeColor=inherit;top=0;left=0;bottom=0;right=0;collapsible=0;dropTarget=0;fillColor=none;points=[[0,0.5],[1,0.5]];portConstraint=eastwest;" parent="My3xGEA-vO20KiPbaAir-302" vertex="1">
          <mxGeometry y="40" width="190" height="40" as="geometry" />
        </mxCell>
        <mxCell id="My3xGEA-vO20KiPbaAir-309" value="ctgry 1" style="shape=partialRectangle;html=1;whiteSpace=wrap;connectable=0;strokeColor=inherit;overflow=hidden;fillColor=none;top=0;left=0;bottom=0;right=0;pointerEvents=1;" parent="My3xGEA-vO20KiPbaAir-308" vertex="1">
          <mxGeometry width="48" height="40" as="geometry">
            <mxRectangle width="48" height="40" as="alternateBounds" />
          </mxGeometry>
        </mxCell>
        <mxCell id="My3xGEA-vO20KiPbaAir-310" value="" style="shape=partialRectangle;html=1;whiteSpace=wrap;connectable=0;strokeColor=inherit;overflow=hidden;fillColor=none;top=0;left=0;bottom=0;right=0;pointerEvents=1;" parent="My3xGEA-vO20KiPbaAir-308" vertex="1">
          <mxGeometry x="48" width="47" height="40" as="geometry">
            <mxRectangle width="47" height="40" as="alternateBounds" />
          </mxGeometry>
        </mxCell>
        <mxCell id="My3xGEA-vO20KiPbaAir-311" value="Delete" style="shape=partialRectangle;html=1;whiteSpace=wrap;connectable=0;strokeColor=#B20000;overflow=hidden;fillColor=#e51400;top=0;left=0;bottom=0;right=0;pointerEvents=1;fontColor=#ffffff;" parent="My3xGEA-vO20KiPbaAir-308" vertex="1">
          <mxGeometry x="95" width="48" height="40" as="geometry">
            <mxRectangle width="48" height="40" as="alternateBounds" />
          </mxGeometry>
        </mxCell>
        <mxCell id="My3xGEA-vO20KiPbaAir-312" value="Edit" style="shape=partialRectangle;html=1;whiteSpace=wrap;connectable=0;strokeColor=#2D7600;overflow=hidden;fillColor=#60a917;top=0;left=0;bottom=0;right=0;pointerEvents=1;fontColor=#ffffff;" parent="My3xGEA-vO20KiPbaAir-308" vertex="1">
          <mxGeometry x="143" width="47" height="40" as="geometry">
            <mxRectangle width="47" height="40" as="alternateBounds" />
          </mxGeometry>
        </mxCell>
        <mxCell id="My3xGEA-vO20KiPbaAir-313" value="" style="shape=tableRow;horizontal=0;startSize=0;swimlaneHead=0;swimlaneBody=0;strokeColor=inherit;top=0;left=0;bottom=0;right=0;collapsible=0;dropTarget=0;fillColor=none;points=[[0,0.5],[1,0.5]];portConstraint=eastwest;" parent="My3xGEA-vO20KiPbaAir-302" vertex="1">
          <mxGeometry y="80" width="190" height="40" as="geometry" />
        </mxCell>
        <mxCell id="My3xGEA-vO20KiPbaAir-314" value="&lt;br&gt;&lt;span style=&quot;color: rgb(0, 0, 0); font-family: Helvetica; font-size: 12px; font-style: normal; font-variant-ligatures: normal; font-variant-caps: normal; font-weight: 400; letter-spacing: normal; orphans: 2; text-align: center; text-indent: 0px; text-transform: none; widows: 2; word-spacing: 0px; -webkit-text-stroke-width: 0px; background-color: rgb(251, 251, 251); text-decoration-thickness: initial; text-decoration-style: initial; text-decoration-color: initial; float: none; display: inline !important;&quot;&gt;ctgry 2&lt;/span&gt;&lt;br&gt;" style="shape=partialRectangle;html=1;whiteSpace=wrap;connectable=0;strokeColor=inherit;overflow=hidden;fillColor=none;top=0;left=0;bottom=0;right=0;pointerEvents=1;" parent="My3xGEA-vO20KiPbaAir-313" vertex="1">
          <mxGeometry width="48" height="40" as="geometry">
            <mxRectangle width="48" height="40" as="alternateBounds" />
          </mxGeometry>
        </mxCell>
        <mxCell id="My3xGEA-vO20KiPbaAir-315" value="" style="shape=partialRectangle;html=1;whiteSpace=wrap;connectable=0;strokeColor=inherit;overflow=hidden;fillColor=none;top=0;left=0;bottom=0;right=0;pointerEvents=1;" parent="My3xGEA-vO20KiPbaAir-313" vertex="1">
          <mxGeometry x="48" width="47" height="40" as="geometry">
            <mxRectangle width="47" height="40" as="alternateBounds" />
          </mxGeometry>
        </mxCell>
        <mxCell id="My3xGEA-vO20KiPbaAir-316" value="Delete" style="shape=partialRectangle;html=1;whiteSpace=wrap;connectable=0;strokeColor=#B20000;overflow=hidden;fillColor=#e51400;top=0;left=0;bottom=0;right=0;pointerEvents=1;fontColor=#ffffff;" parent="My3xGEA-vO20KiPbaAir-313" vertex="1">
          <mxGeometry x="95" width="48" height="40" as="geometry">
            <mxRectangle width="48" height="40" as="alternateBounds" />
          </mxGeometry>
        </mxCell>
        <mxCell id="My3xGEA-vO20KiPbaAir-317" value="Edit" style="shape=partialRectangle;html=1;whiteSpace=wrap;connectable=0;strokeColor=#2D7600;overflow=hidden;fillColor=#60a917;top=0;left=0;bottom=0;right=0;pointerEvents=1;fontColor=#ffffff;" parent="My3xGEA-vO20KiPbaAir-313" vertex="1">
          <mxGeometry x="143" width="47" height="40" as="geometry">
            <mxRectangle width="47" height="40" as="alternateBounds" />
          </mxGeometry>
        </mxCell>
        <mxCell id="My3xGEA-vO20KiPbaAir-318" value="Check, delete and edit&amp;nbsp; all your expenses." style="text;strokeColor=none;align=center;fillColor=none;html=1;verticalAlign=middle;whiteSpace=wrap;rounded=0;" parent="1" vertex="1">
          <mxGeometry x="520" y="560" width="180" height="30" as="geometry" />
        </mxCell>
        <mxCell id="My3xGEA-vO20KiPbaAir-456" value="Check, delete and edit&amp;nbsp; all your incomes." style="text;strokeColor=none;align=center;fillColor=none;html=1;verticalAlign=middle;whiteSpace=wrap;rounded=0;" parent="1" vertex="1">
          <mxGeometry x="790" y="560" width="180" height="30" as="geometry" />
        </mxCell>
        <mxCell id="My3xGEA-vO20KiPbaAir-457" value="" style="endArrow=classic;html=1;rounded=0;entryX=0.131;entryY=0.009;entryDx=0;entryDy=0;entryPerimeter=0;" parent="1" target="Rzn8Hp6M5OzKj84DvB4l-2" edge="1">
          <mxGeometry width="50" height="50" relative="1" as="geometry">
            <mxPoint x="745" y="172" as="sourcePoint" />
            <mxPoint x="880" y="340" as="targetPoint" />
            <Array as="points">
              <mxPoint x="750" y="430" />
              <mxPoint x="808" y="430" />
            </Array>
          </mxGeometry>
        </mxCell>
        <mxCell id="My3xGEA-vO20KiPbaAir-459" value="" style="verticalLabelPosition=bottom;verticalAlign=top;html=1;shadow=0;dashed=0;strokeWidth=2;shape=mxgraph.android.navigation_bar_1_landscape;sketch=0;" parent="1" vertex="1">
          <mxGeometry x="20" y="306" width="160" height="30" as="geometry" />
        </mxCell>
        <mxCell id="My3xGEA-vO20KiPbaAir-460" value="" style="verticalLabelPosition=bottom;verticalAlign=top;html=1;shadow=0;dashed=0;strokeWidth=2;shape=mxgraph.android.navigation_bar_1_landscape;sketch=0;" parent="1" vertex="1">
          <mxGeometry x="235" y="306" width="160" height="30" as="geometry" />
        </mxCell>
        <mxCell id="My3xGEA-vO20KiPbaAir-461" value="" style="verticalLabelPosition=bottom;verticalAlign=top;html=1;shadow=0;dashed=0;strokeWidth=2;shape=mxgraph.android.navigation_bar_1_landscape;sketch=0;" parent="1" vertex="1">
          <mxGeometry x="670" y="308" width="160" height="30" as="geometry" />
        </mxCell>
        <mxCell id="My3xGEA-vO20KiPbaAir-462" value="" style="verticalLabelPosition=bottom;verticalAlign=top;html=1;shadow=0;dashed=0;strokeWidth=2;shape=mxgraph.android.navigation_bar_1_landscape;sketch=0;" parent="1" vertex="1">
          <mxGeometry x="464" y="307" width="160" height="30" as="geometry" />
        </mxCell>
        <mxCell id="My3xGEA-vO20KiPbaAir-469" value="" style="verticalLabelPosition=bottom;verticalAlign=top;html=1;shadow=0;dashed=0;strokeWidth=2;shape=mxgraph.android.navigation_bar_1_landscape;sketch=0;" parent="1" vertex="1">
          <mxGeometry x="520" y="771" width="190" height="30" as="geometry" />
        </mxCell>
        <mxCell id="My3xGEA-vO20KiPbaAir-470" value="" style="verticalLabelPosition=bottom;verticalAlign=top;html=1;shadow=0;dashed=0;strokeWidth=2;shape=mxgraph.android.navigation_bar_1_landscape;sketch=0;" parent="1" vertex="1">
          <mxGeometry x="791" y="769" width="190" height="30" as="geometry" />
        </mxCell>
        <mxCell id="jC614Gbt2xjvETXRVQ7t-1" value="" style="verticalLabelPosition=bottom;verticalAlign=top;html=1;shadow=0;dashed=0;strokeWidth=2;shape=mxgraph.android.navigation_bar_1_landscape;sketch=0;" parent="1" vertex="1">
          <mxGeometry x="870" y="319" width="160" height="18" as="geometry" />
        </mxCell>
        <mxCell id="Do_2qCsauTTldO60T5Iy-3" value="" style="whiteSpace=wrap;html=1;" vertex="1" parent="1">
          <mxGeometry x="464" y="200" width="166" height="60" as="geometry" />
        </mxCell>
        <mxCell id="Do_2qCsauTTldO60T5Iy-4" value="" style="childLayout=tableLayout;recursiveResize=0;shadow=0;fillColor=none;" vertex="1" parent="1">
          <mxGeometry x="470" y="200" width="150" height="60" as="geometry" />
        </mxCell>
        <mxCell id="Do_2qCsauTTldO60T5Iy-5" value="" style="shape=tableRow;horizontal=0;startSize=0;swimlaneHead=0;swimlaneBody=0;top=0;left=0;bottom=0;right=0;dropTarget=0;collapsible=0;recursiveResize=0;expand=0;fontStyle=0;fillColor=none;strokeColor=inherit;" vertex="1" parent="Do_2qCsauTTldO60T5Iy-4">
          <mxGeometry width="150" height="19" as="geometry" />
        </mxCell>
        <mxCell id="Do_2qCsauTTldO60T5Iy-6" value="exp ctgy" style="connectable=0;recursiveResize=0;strokeColor=inherit;fillColor=none;align=center;whiteSpace=wrap;html=1;" vertex="1" parent="Do_2qCsauTTldO60T5Iy-5">
          <mxGeometry width="50" height="19" as="geometry">
            <mxRectangle width="50" height="19" as="alternateBounds" />
          </mxGeometry>
        </mxCell>
        <mxCell id="Do_2qCsauTTldO60T5Iy-7" value="Value 2" style="connectable=0;recursiveResize=0;strokeColor=inherit;fillColor=none;align=center;whiteSpace=wrap;html=1;" vertex="1" parent="Do_2qCsauTTldO60T5Iy-5">
          <mxGeometry x="50" width="50" height="19" as="geometry">
            <mxRectangle width="50" height="19" as="alternateBounds" />
          </mxGeometry>
        </mxCell>
        <mxCell id="Do_2qCsauTTldO60T5Iy-8" value="Value 3" style="connectable=0;recursiveResize=0;strokeColor=inherit;fillColor=none;align=center;whiteSpace=wrap;html=1;" vertex="1" parent="Do_2qCsauTTldO60T5Iy-5">
          <mxGeometry x="100" width="50" height="19" as="geometry">
            <mxRectangle width="50" height="19" as="alternateBounds" />
          </mxGeometry>
        </mxCell>
        <mxCell id="Do_2qCsauTTldO60T5Iy-9" style="shape=tableRow;horizontal=0;startSize=0;swimlaneHead=0;swimlaneBody=0;top=0;left=0;bottom=0;right=0;dropTarget=0;collapsible=0;recursiveResize=0;expand=0;fontStyle=0;fillColor=none;strokeColor=inherit;" vertex="1" parent="Do_2qCsauTTldO60T5Iy-4">
          <mxGeometry y="19" width="150" height="22" as="geometry" />
        </mxCell>
        <mxCell id="Do_2qCsauTTldO60T5Iy-10" value="Value 4" style="connectable=0;recursiveResize=0;strokeColor=inherit;fillColor=none;align=center;whiteSpace=wrap;html=1;" vertex="1" parent="Do_2qCsauTTldO60T5Iy-9">
          <mxGeometry width="50" height="22" as="geometry">
            <mxRectangle width="50" height="22" as="alternateBounds" />
          </mxGeometry>
        </mxCell>
        <mxCell id="Do_2qCsauTTldO60T5Iy-11" value="Value 5" style="connectable=0;recursiveResize=0;strokeColor=inherit;fillColor=none;align=center;whiteSpace=wrap;html=1;" vertex="1" parent="Do_2qCsauTTldO60T5Iy-9">
          <mxGeometry x="50" width="50" height="22" as="geometry">
            <mxRectangle width="50" height="22" as="alternateBounds" />
          </mxGeometry>
        </mxCell>
        <mxCell id="Do_2qCsauTTldO60T5Iy-12" value="Value 6" style="connectable=0;recursiveResize=0;strokeColor=inherit;fillColor=none;align=center;whiteSpace=wrap;html=1;" vertex="1" parent="Do_2qCsauTTldO60T5Iy-9">
          <mxGeometry x="100" width="50" height="22" as="geometry">
            <mxRectangle width="50" height="22" as="alternateBounds" />
          </mxGeometry>
        </mxCell>
        <mxCell id="Do_2qCsauTTldO60T5Iy-13" style="shape=tableRow;horizontal=0;startSize=0;swimlaneHead=0;swimlaneBody=0;top=0;left=0;bottom=0;right=0;dropTarget=0;collapsible=0;recursiveResize=0;expand=0;fontStyle=0;fillColor=none;strokeColor=inherit;" vertex="1" parent="Do_2qCsauTTldO60T5Iy-4">
          <mxGeometry y="41" width="150" height="19" as="geometry" />
        </mxCell>
        <mxCell id="Do_2qCsauTTldO60T5Iy-14" value="Value 7" style="connectable=0;recursiveResize=0;strokeColor=inherit;fillColor=none;align=center;whiteSpace=wrap;html=1;" vertex="1" parent="Do_2qCsauTTldO60T5Iy-13">
          <mxGeometry width="50" height="19" as="geometry">
            <mxRectangle width="50" height="19" as="alternateBounds" />
          </mxGeometry>
        </mxCell>
        <mxCell id="Do_2qCsauTTldO60T5Iy-15" value="Value 8" style="connectable=0;recursiveResize=0;strokeColor=inherit;fillColor=none;align=center;whiteSpace=wrap;html=1;" vertex="1" parent="Do_2qCsauTTldO60T5Iy-13">
          <mxGeometry x="50" width="50" height="19" as="geometry">
            <mxRectangle width="50" height="19" as="alternateBounds" />
          </mxGeometry>
        </mxCell>
        <mxCell id="Do_2qCsauTTldO60T5Iy-16" value="Value 9" style="connectable=0;recursiveResize=0;strokeColor=inherit;fillColor=none;align=center;whiteSpace=wrap;html=1;" vertex="1" parent="Do_2qCsauTTldO60T5Iy-13">
          <mxGeometry x="100" width="50" height="19" as="geometry">
            <mxRectangle width="50" height="19" as="alternateBounds" />
          </mxGeometry>
        </mxCell>
      </root>
    </mxGraphModel>
  </diagram>
</mxfile>
